/* XPM */
static char * candle_6_xpm[] = {
"32 32 13 1",
" 	c None",
".	c #930000",
"+	c #F56200",
"@	c #FDD14D",
"#	c #E9E9E9",
"$	c #000000",
"%	c #ECCFAE",
"&	c #F1BD50",
"*	c #E8BD8C",
"=	c #C2912C",
"-	c #586372",
";	c #8F9DA9",
">	c #313131",
"                                ",
"               .                ",
"               ..               ",
"               .+.              ",
"              .+@+              ",
"              .+##+             ",
"              +##@.             ",
"              .@#.              ",
"               .$               ",
"              %&&&              ",
"             &&*%%=             ",
"             &=*%%=             ",
"             ==*##&             ",
"             =&*#*&             ",
"             =&***=             ",
"             %&***=             ",
"             *&%%%=             ",
"             *&%%#=             ",
"             *=*%#=             ",
"             *=*%*=             ",
"        -;;;;&=*#*=;;;;;-       ",
"     ;-------==***%--------;    ",
"   ;-->>>>>>>==****>>>>>>>---;  ",
"  ;-;>>>--;;;==****;;;-->>>;--; ",
" ;-;>>--;;;;;==**%=;;;;;-->>;-; ",
" ;-;>>-;;;;;;==***=;;;;;;->>;-; ",
" ;-;>-;;;;---==**==---;;;;->;-; ",
"  ;-;;;;;;;;--====--;;;;;;;;-;  ",
"   >---;;;;;;;----;;;;;;;--->   ",
"    >>>----;;;;;;;;;;---->>>    ",
"    >>>>>>>>>>>>>>>>>>>>>>>>    ",
"     >>>>>>>>>>>>>>>>>>>>>>     "};
