/* XPM */
static char * candle_3_xpm[] = {
"32 32 13 1",
" 	c None",
".	c #930000",
"+	c #F56200",
"@	c #E9E9E9",
"#	c #FDD14D",
"$	c #000000",
"%	c #ECCFAE",
"&	c #F1BD50",
"*	c #E8BD8C",
"=	c #C2912C",
"-	c #586372",
";	c #8F9DA9",
">	c #313131",
"                                ",
"                  .             ",
"                  .             ",
"                 ..             ",
"                ++.             ",
"               .@#.             ",
"               +@.              ",
"               .@.              ",
"               .$               ",
"              %&&&              ",
"             &&*%%=             ",
"             &=*%%=             ",
"             ==*@@&             ",
"             =&*@*&             ",
"             =&***=             ",
"             %&***=             ",
"             *&%%%=             ",
"             *&%%@=             ",
"             *=*%@=             ",
"             *=*%*=             ",
"        --;;;&=*@*=;;;;--       ",
"     ;-------==***%--------;    ",
"   ;-->>>>>>>==****>>>>>>>---;  ",
"  ;-;>>>---;;==****;;--->>>;--; ",
" ;-;>>--;;;;;==**%=;;;;;-->>;-; ",
" ;-;>>-;;;;;;==***=;;;;;;->>;-; ",
" ;-;>--;;----==**==----;;-->;-; ",
"  ;-;;;-;;;---====---;;;-;;;-;  ",
"   >---;;;;;;------;;;;;;--->   ",
"    >>>----;;;;;;;;;;---->>>    ",
"    >>>>>>>>>>>>>>>>>>>>>>>>    ",
"     >>>>>>>>>>>>>>>>>>>>>>     "};
