/* XPM */
static char *_8c5de2ac78b420682042d27a732e978U9jgoY61kpCOvByu[] = {
/* columns rows colors chars-per-pixel */
"64 64 256 2 ",
"   c #040101",
".  c #0B0201",
"X  c #0C0A03",
"o  c #06060B",
"O  c #120401",
"+  c #140B02",
"@  c #190C02",
"#  c #170B08",
"$  c #1B1204",
"%  c #1C130B",
"&  c #17150A",
"*  c #1A1614",
"=  c #0A0E0F",
"-  c #210C01",
";  c #2B1B0B",
":  c #251708",
">  c #321C0B",
",  c #391F0A",
"<  c #241B12",
"1  c #2B1C12",
"2  c #251C1A",
"3  c #311F12",
"4  c #37240C",
"5  c #2C2214",
"6  c #2A241A",
"7  c #332413",
"8  c #3B2B14",
"9  c #3B2B1B",
"0  c #352719",
"q  c #3C321A",
"w  c #2B230D",
"e  c #372B25",
"r  c #3C3224",
"t  c #3A3428",
"y  c #3C3832",
"u  c #292922",
"i  c #442D14",
"p  c #422D1C",
"a  c #442819",
"s  c #43331B",
"d  c #4B341D",
"f  c #4A3719",
"g  c #543A1C",
"h  c #41260A",
"j  c #442F24",
"k  c #443324",
"l  c #4B3522",
"z  c #4C3B25",
"x  c #45342B",
"c  c #453A2B",
"v  c #4C3C2C",
"b  c #463827",
"n  c #523D2C",
"m  c #553B26",
"M  c #4A3C32",
"N  c #453934",
"B  c #533E33",
"V  c #563D33",
"C  c #3C413B",
"Z  c #5C471D",
"A  c #54432C",
"S  c #5B442C",
"D  c #594728",
"F  c #4D4335",
"G  c #4C4339",
"H  c #544434",
"J  c #5B4533",
"K  c #5C4A35",
"L  c #54453B",
"P  c #5B4B3C",
"I  c #56493A",
"U  c #5C5039",
"Y  c #4E4329",
"T  c #64492B",
"R  c #634B34",
"E  c #634D3C",
"W  c #6B4E3B",
"Q  c #654933",
"!  c #6C5436",
"~  c #64523B",
"^  c #6C533C",
"/  c #665737",
"(  c #735A3D",
")  c #7B5B3C",
"_  c #745538",
"`  c #6D502C",
"'  c #7D633B",
"]  c #433E45",
"[  c #5C4C42",
"{  c #554D43",
"}  c #5C5346",
"|  c #524C4A",
" . c #634E41",
".. c #645343",
"X. c #6B5543",
"o. c #6C5A43",
"O. c #64554B",
"+. c #6C5B4B",
"@. c #67584B",
"#. c #725644",
"$. c #735B44",
"%. c #7B5C43",
"&. c #735D4B",
"*. c #7A5D4B",
"=. c #6C5E53",
"-. c #645B55",
";. c #725D52",
":. c #6E614A",
">. c #75624C",
",. c #7C634D",
"<. c #796548",
"1. c #6E6254",
"2. c #69635A",
"3. c #736354",
"4. c #7C6453",
"5. c #7D6A54",
"6. c #73645A",
"7. c #74695D",
"8. c #7C6B5B",
"9. c #7A6659",
"0. c #7A725D",
"q. c #6A6764",
"w. c #7B6B63",
"e. c #776864",
"r. c #7B7267",
"t. c #7E7C79",
"y. c #835E39",
"u. c #825D43",
"i. c #83654C",
"p. c #886849",
"a. c #846B54",
"s. c #8A6E53",
"d. c #836C5B",
"f. c #8B6E5A",
"g. c #856655",
"h. c #85715B",
"j. c #8C735C",
"k. c #8C7457",
"l. c #93755C",
"z. c #957759",
"x. c #916C51",
"c. c #836D62",
"v. c #847364",
"b. c #8B7464",
"n. c #8C7B6C",
"m. c #887768",
"M. c #917564",
"N. c #937B65",
"B. c #9B7C64",
"V. c #937D6B",
"C. c #9A7D6A",
"Z. c #937667",
"A. c #8D7C72",
"S. c #867876",
"D. c #927D72",
"F. c #9A7D71",
"G. c #A07F6F",
"H. c #9A815C",
"J. c #95826C",
"K. c #9B836D",
"L. c #998265",
"P. c #8D8275",
"I. c #8D847C",
"U. c #948273",
"Y. c #9B8473",
"T. c #9E8A75",
"R. c #94857A",
"E. c #9A867A",
"W. c #9C8B7B",
"Q. c #968A79",
"!. c #978B75",
"~. c #A4856D",
"^. c #A78869",
"/. c #A48B75",
"(. c #A38B7B",
"). c #A88A77",
"_. c #B18E77",
"`. c #A4927C",
"'. c #AC937D",
"]. c #AD9477",
"[. c #B5957B",
"{. c #B28F6F",
"}. c #AB936E",
"|. c #C29772",
" X c #9C8D83",
".X c #968B85",
"XX c #9E938B",
"oX c #999188",
"OX c #928E89",
"+X c #A28F83",
"@X c #AA8E80",
"#X c #A49384",
"$X c #AB9484",
"%X c #AD9984",
"&X c #A4958C",
"*X c #AB968A",
"=X c #AC9B8C",
"-X c #A69A89",
";X c #B49B85",
":X c #B99C83",
">X c #B39C8B",
",X c #BA9E8A",
"<X c #B29685",
"1X c #A49A93",
"2X c #AC9D94",
"3X c #A89996",
"4X c #B29E93",
"5X c #B89E93",
"6X c #AEA18C",
"7X c #B4A18D",
"8X c #BBA38C",
"9X c #B9A589",
"0X c #ACA397",
"qX c #B4A394",
"wX c #BBA392",
"eX c #B4A49B",
"rX c #BBA69B",
"tX c #BCAB9C",
"yX c #B8AA97",
"uX c #BFB197",
"iX c #BDACA2",
"pX c #B6A9A4",
"aX c #BCB2AC",
"sX c #BDB1A5",
"dX c #B2AEA7",
"fX c #C4A58C",
"gX c #C4AA95",
"hX c #C2AD9B",
"jX c #C7A995",
"kX c #C8B29C",
"lX c #D2B69D",
"zX c #D1A985",
"xX c #C2AEA2",
"cX c #C5AFA5",
"vX c #C3B2A4",
"bX c #CBB4A4",
"nX c #C3B3AA",
"mX c #CCBAAC",
"MX c #C8B8AA",
"NX c #D2B9A4",
"BX c #D5BBAB",
"VX c #CCBCB3",
"CX c #C6B9B5",
"ZX c #D4BCB3",
"AX c #CDC3B8",
"SX c #D4C3B4",
"DX c #D8C6B9",
"FX c #D4C3AC",
"GX c #E3CBB9",
"HX c #DCCDC4",
"JX c #D6CBC5",
"KX c #D9D0CA",
"LX c #E5D4CB",
"PX c #E8D2CC",
"IX c #EDE4DC",
"UX c #ECE7E4",
/* pixels */
"/ s 6.c F yX=X4.B { 2.6 nXbX3.0XBXK.~ ..XXe xX%X&.P hXfXX.  I.E *XpX{   &.x.u.i.-XE.x  XB E c.L q.wXj.} = % 7 v.4.&.s $._ /.$.f ",
"D ; < % 7.hX#X6.Y.A.CXI A.qX=.0XT.~ A W.SXA.V.'.E ; Y.fXP * 3Xb.>XvXr.- z 5.W C.vX2X0 A.H =X=XH CX$XK.=.  t K T.b.s 4 N.i.j.~ : ",
"d : t & A.$Xn.XXh.+XtX+.9.-X+.w.P +.v.bXbXwXd.`.$.8. .D.x q.pXM.b.NX/.n 5 x 7 M.mX X-.aXm.3.U.v.-X$X~.m.e I o.J.~.a.0 J.n.>.5.3.",
"; K >...D.SX=XqXK Y.hX9.H P. X@.< I.rX>XlX:Xf.c./.M.X.:   dXqX%.E [.].S 7.S.H ,.BX#XS.aX7.k >.9.L 5.8XiXr.s o.J z.5.0 Q.b.5.hXxX",
"1 ^ z.( [ CXE.].z ,.wXb.A qXW.d.e I.2Xd.k.[.d. .8Xj.5.w.q.&X>X%.0 b.'.>XiXQ.E ( lX>.W.iX3.k P P 6 k rXeX1.4 I $ T a.n >X>.o.kXn.",
"5 R x.z.[ t @.^.l 7 qXb.wX>X5.V.XXeXvX*.l ,.J xX%Xs.'.MXI.P '.T < 1 V.BXrXm.S g.gXA rXtXH 0 v M * 3.vX1Xc A P * 8 K R /.z ~ `.V.",
"t : Q ,XQ.F [ v.p : 8.W.wXg.&.bXAX7.kXd.p O ; HX$Xk.jXVX0X; i.S : 7 R.VXhXV.Z...M.9 n.tXc 5 . .   .XMX.X5 l P & + + &.N.....7 T.",
"U 9 R.4XU.U 0XpXW.P.} Q.'.u.m mXnX3.7XY.O.e x AXqX) _.DXoX3 p > J =.w.iXY.fXqX7.9 - I n.F % X     v.2X} O.d v   o . ,.k.3 < < !.",
"~ z '.;XU -XMXiX7X>XM.*.n.v 7 hXxX$.{ n.m P ) ,.4.< oXNXB.x L X.j.~.x.b -.ZXyX&.2 5.J.*XD.+.b $   S.7.8.VXeX7 + = . ~ i.p   F B.",
"&.~ N.<...MXnXvXqX$XY.4.k + @ *XwX*.< 8 W n.B.Y.i.c eXGX,.J c.f.K.:Xx.P { ZX#X..x d.8X4X2Xn.o.c X pX-XU.nXrX:.e r t @ _ h.2.t ~ ",
"~ &.~ z  XAXaXsXtX=XJ.4.H 0 . eX>X*.; T i./.:X'.l...qXbX*.W f.~.[.:Xl.X.iXDX Xn E /.<X>X5XW...@.< CXsXo.wXNXJ.k d b : $.J.r.y . ",
"7 ~ 0 . 1XCXvXvXrX(.Y.h.K z - &X Xv z s._.).[./.i.&.L W.(.M.B.[.fXfXg.X.vXVXc P f.[.,XhXwXZ.5.X.5 JXvX~ p >XL.n g H b J.h.O.*   ",
". { { % 0XnXyXhX'.C.L.a.g f 4 I w.@ a.~.~.fX_.%.i.4.v .  XGXjXfX,Xf.W X.n.7.k X.B.jXfX'.j.,.d.^ < CXsX:.3 T.k.d f b c I I t X   ",
"+ G I + eX2XhX].s.a.K.s.D D 4 3.3.: a.l m [.;Xg : K L + m.DX/.MX$Xl ; 0 B $ 3 D.` jXBXN.^ s.5.S < eX0XI : I g ~ ^ : r A c u X < ",
"d.>.R 8 P.q h.;X( 4 n $.f T i 5.f.7 s.; 9 fX Xp $ l &.O =.$Xm R.MXv   p w.  n Q T M.ZXo.8 K `.d % e r.r 0 7 ~ V.[ + r : 6 = X s ",
"^.z.) D >.A K d.D 4 ; b.S T m ~ y.l s.k + hX* L 1 S 5.O O.R - r.&XO.& V A.  3.W T &.2X~ - j 5Xd % . $ 5 % @ U W.2.X ; ; X = & ! ",
"z.~ F < v.S A v G 5 . E.S Z f 7 g.R W.d m.aX. o.P J 9.  O.W l OXq.L #.a.c.k v.d.e.rX@.P 9 k ;Xh *   + K R ~ Q. Xv @ % 5 5 ; : v ",
"s . o . m.S m.G ..A p $XS f f N B.4.kX_.hX3X. E ( B.a.0 H N.4.JX-.k Q ( #.k T.8X>XrX7 H 3. .(.l #   0 9.j.K.wX6.[ v 8 : A <.>.8.",
"8 X o   yXT.-X. S z./.l.%.! k 2 i /.kX^.NX0XM X._ z.$.k k NXgXLX-.H R W ^ 7 /.].FXtX@ v ~.~.#.k . . 2 P <.[.wXr 7.q f d d ' L.6.",
"0.6     6XuXyX< m z.lXM.Q ! : X . e.D.B.NXDX0X*.) ( B 6 P wXwXLXJX+X#.m > @ V.'.PX1Xe. .p.zXz.A <   o + D [.wX&X=.q Y 1 - p.L.B ",
"iX1.+ . #X8XhXv.(.~ J.X.E ~ ..e     X n DXZXqXd.^ .     x *X3.GXHX2Xv.c.W. .k X.PXAX3XD.! ^.z.8 . =   . 8 <X*XOXb.f $   . :.].5X",
"iXA.F v F.F.bXW.4X..z O B 7Xa.A.u = o . >XI 0 +.M   o e  XP . U..X=.O.DXVXD.3.6.wX#X%Xb.$., j <   & q.-.+ c 6 e E q   o o t ~ c.",
"BX(.I I ;X~.d.O.d.~ w @ 1 4./.Y.8.* . . w.  y =XI   o D.hX6.@ 0XtXF VXHXVXW.4X2X3.o.W 8 1.: . e % [ qX3.<     . ..c X   X F +.E.",
"^.k.A D ^.H.z I g.%.s e 1 3.s.,.T 9.S.[ -.u dX*X>.e e.<XBX#X-.HXrXH VXPXeXrXPX&X-.>XC.o.I.X r.B e $X).X.-.|   6.9.9 7.6.r W.bXtX",
"<.<.z s N.<.S %X|._ m M...qXeX9   .Xl.fXxXR.SX*X9.P b.].jXfX@XR.bX[ eXGX(.OXUXE./.fXl.cXiXG =XG.iXK R T ~.D.k W.h.I `.V.+.Y.MXiX",
"^ ^ A 8 R o.&.qX:X^ N.J.c.hXhX$.e e.5.K.nX2XNX_.<.o.D.4.C.fX>XH GXv.@.>X .0XUX8.8X~.#.hXnXL rXM.xXp d m '.(.k 6X5...(.`.U.d.=XyX",
",.&.#X8.v.d.DXeXn.H *XY.W '.:Xl.s 3.&.MXXXm.lX{./ S ).g.J bX7XX.vX3.X.J D.3XKXR.C.d.4 gXbXP xXD.iX7 ; , '.b.n qX5.J %X%XW.V.P 3.",
"R W.yX~ W.U.LXDX9.; $Xf.m #.jXs.q tX#XSXnX#X].^.z i._.#.- @.W.j.BX+.V./.VXXXS.7.> V.n.'.5XV ZX#XU.v ; d /.4.E qX4.J hX>Xn.W.I 9.",
"A b.tXH qXn.=XHX%XA N.#.l d '.a.c nXn.kXZX<X! m O M.{.p.X..XrXd.vXT.;X(.HXiX;.0 +.tXhX>XY.a U.Q.O.+...l d.A X.$XE ..vX>X+.qX+.%X",
"8 J.=Xo.%XV.H -X8X$.j.E 7 O w.3.e LXb.i.bX/.,.O . x /.z.7X&XLXD.O.kX/.d.mX$XX.} m.yXSXv.6.: #XP W.tX*X7 E X.K E v P vXU...=X+.vX",
"8 n.vX3.>XY.E  .8XJ.+.P 9 r nXaX7.LXD.o.M.gX5.M <   M =XgXZ.DX2X{ kXl.n W./.~ P n.ZXGX4X@ F nXV.5.SXSX8.K `.o.b.P.O [ 3.4X8...vX",
"W.O.eX9.$XY.V.E.3.tXF @ pXI.LXIXbXHX2X8.x kX<.b.c   ] CX>Xp./.CX2.;X%.8 J ~.S U.n.b.PXiXy r.MXY.K =XDXW.h.T.o.+X0X< A.n.qXrX8.rX",
").( K.bX1XP.W.V./.DXb.M DX+XJXIXDXBXqX6.d.4.#XbX4.= t.kX[.N M BX4XE.} L I U.H nX#Xj bXqX{ 1XnXW.k v.NXb.wXb.R >XeX9 $XV.8X[.T.R.",
"s.<.hXhXQ.0 Q.N.B.FXkXX.yXrXn.R.HXiXr.+.>X*.hXNX~.N 2.bX^ O 2 M.4.*.rX4X4X*.4XAX&X1 v.v.% .XHX).H v. . .rXU.b yXiXL =XY.N.l.T.n.",
"( H n.gXj.@ n.z.p.qX,X( =X>Xo.1 XXR.S.qXjX#.k.fX[.e e =Xn 2.pXwX#.&.8X/.l.$.%XHXI. X2Xv.[ B hXN.3.yXO.3.2X6.@ aXrXP tX8.4 k.L.A ",
"_ r I /.T 6 n.y.f F fXs.XXrXh.eXr.iXtX-X'.Q @ ;X~.e 2 n.V.DXbXB.5.m ,X~.s.s.v 0XQ.cXV.o.3./.Y.#.tXbX@.=X1.. % r.V.b.xX..O o.>.7 ",
"_ c =.~.( e Q.` p   ).<.} nX#X&XP >X>Xd.).X.0X+X$.. u M DXbX/.p.8.d.4.f.kXY.M t lX~.^ m K.>X@.+XBXn.v.vX=X; 3.I /.W.w.c O.=X..P ",
"( F H j.&.G m.h . | Z.$.y O.SXS.v C.,XK b.3.LXIXR.} . } LX$XB.u.tXqXE.X.bXqX6.t.[.l.d g.:X`.v I.hXd.b.bX(.v 3.3.N.`.H v 8.tXqX[ ",
"N.h.l I O..XP.> . OXZ.>X.XN SXX.5 *.,XK 5.=XIXJXiX1.. y #XV., ,.DXDXA.D.VX+X7.< K.E - V.gXT.< OXtXE p hX/.l a.R T.wX+.R C.'./.V.",
"J.j.K v S.VX-X[ * dXC.BX0XI rXQ + &.;X&.DXvXAXHXMXW.7.aX X+.O m.DXSXR.nXqXW.v w.A.@ @ tX7Xv.. y n.=.P bXY.m h.m b.kXJ.Q u.z.~.L.",
"'.,.X.W.=XFXuXj.t vXY.ZXLXO.#X^ M 1.6XP HXiXD.c.sXU.>X~.p.( i b.NXgXd.wXg.W V.vXn.v H SXJ.h.O r.eXP.&.,X,.4.U.k J.xXF.! <.9 b.( ",
":X( $.>XQ.tXbXqXF rX(.D.JX1Xx Y.bX,XV.X.tX4Xn.: V.Z.8XB.Q ,.&.v.BX(.P >XX.X.FXvXZ.$.3.rXwXv r pX`.&.S ^ R $XU.; :.tXb.K.:.. 7.i ",
"9X! R hX9...vX$X@.bX$XH 1XCXH bX[.g.a.,.vXtXn.8 %.l.:X) j.'.%X;.$XH J ..E W.DXqXg.M.Y.H d.0 7.aXl.! M.(.+.H ..k v L M #X:.O.&XQ.",
"].<.( '.P ; n g.S NX(.z 3.AXE <X~.l.g.Y.Y.mXV.o.G.~.j.f L.bX*XV 8 R Z.`.W.vXVX6.^ 8Xc.7 J 4.=XMX%.R bXvX..7 v ..h.8.k v.1.CX2XI.",
"q ~ i /.A 9 D x.L.j.^ <.T.%Xg.f.! $.mXhXb.d.Z.,XhX%XY.R 8XNXb.; z a./.'.v.[ #X7 vXZXv.A a.B.<.V.8 A.JXaXr 8 ~ a.a.h.J ; iXsXqX@.",
"  7 d 5.A v.<.H.i.Q W ;XfX8XK.#.d $XbX=XE m 8XBXtXrX$X3.DXwXJ : R z._.C.V @ ; W KXHX3.R z.^.L.J 0 aXJXaX7 Y T s.z.s.~ 9 SXyX!.r ",
"  @ S l F eXb.) R d $XgX8X].~.C.^ hXwXV.S ( jXBX>XhXZ.a.bXE.: r X.i l.<XI + 9 g.&X2X~ z.^.^.j.9.t pXCX&X4 g ) x.l.( U r 2X%X5.< ",
"  F 4 O -.aX7.m > ..U./.jXL.<.5.*.`.$XR g k.FX).kX[.Q i 5.k O G P - Q wXL + F s.: U.s.x.|.` s { H [ VXc.m ! ` k.j.f Y 6 oX-XY M ",
"u & .   w.VXv.H < 9 g g >XP s 9 b.W 6.$ T [.J.g *X%Xs 6 ^ s   X.T 4 ..-XL O...d.k 7 1 e uXY O P d.o = 4 z.l 5.^.5.O < q e S.6Xm.",
": $ @ } =XqX>Xo.F 7 d f 3...w : H.g w @ S :X[ a c.%Xi 7 Q z   X.P.v 1X&X- $.%.p.V 9 c r wXE 1 P K.    K %.5 oXNX1.# 5 0 2.pXtX3.",
"v k m.R.#XT.'.~ r ; n h. ...^ Q a.J < + > 8XK i #Xw.>.S ) J o A vXU.=X4X- ,.` u.7 k K ,.n.L J X.,.X   4.s.r aXAXP.@ r q .XvXyXA.",
"&.n.n.-XU.V.~.R 4 [ n.qX1 X.].s.z.K e   . +Xb.V.mXN J _ _ W . a.jX~.fXhXn.+.P 7   H z.].O.5 <.x.B # + a./.U.aXsX@ F H 9 MX#X!.pX",
"T.k c m.U.N.l.D i U.rXFX[ S ( [.k.k     . iXkX%XSXX &.) ( m . R zXs.fXSXxXI.O.    x _ ].O.} ! u.9   + Y.fX'.hXQ.< U 8 $ W.W.-XiX",
"bXP $ v qX,.N.<.D k ..yX+XK.` ~ ;.O.N 6.< `.].[.GXq.d.! l $X6.> n +.+XbXD.+.x 0 e . ; %X*X/.<.4 1 e S.h.~.{.jXa.9 A w @ 1.3.=.rX",
"7XU.r 8.7X$.x.' D 0 . #X+Xd.~ 0 7XW.J.9XpXe C.w.lXJX5.f.r J.v.E &XiXiX3.9.a ,.L.9.... 6.d.F. ...P v.pXD./.%.jX/.3.K @ + @ t 3X6X",
";X%X3.6X%X! ) x.~ G XXv.c.g.K 0 *X.X`.9XAX=Xi.x _.oX&.V . ~ s X.4X4XBXV.J.s.8XN.!.`.[ e.s Q.e. X$.n.XX2XU.i.8X#Xo.K M e.r.S.pX/ ",
"D.q.} o.p._ J p.H yXxXMX*X#Xm.D.&XA.R.=XvX>Xj.f.k s s.k.%.4.8.M *XqX7Xb.F.).kXL.V.'.W $.$X8...;.9.V.>X'.J.X.+.@.S 5.m.#X XrXN.s.",
"N X P O.> y.Z ` -XyX4XbXT.$X7XJ.=XX.SXJ.d.b.j.b.A.5.j.a.,.T.V.P =XhX4.$X3.hXBXf.b.4.X.&.rXv.m.v.n.-X=X#Xv.+.&.A.>.b.=XeXpXtXW.K.",
"3.q D e . _ D j.4X*Xb.gX5.8XhX`.J./.fX~.i.R h.D.$X$X/.#.Y.wX&.J -XmXf.F.F CXmXZ.#.4.~ H R.VXxXv.yXrXR.-X..P W.@.K.H  XaXJX0XI -X",
"/ / p.6 * T X.tXxX8.&.;X^ $XbXV.$.gXfXz.].S 3.iXtXn.+.4.(.>XJ &...(.<X=XG 1X0Xw.W V.d.k 1XKXDXA.n.MXv.%X3.Y.V.~ 5.v.7.eXpXoXP.R.",
"&.l l.s w i.&.%XhX%X5.5.s hXbXc.a.;XjX9XNXP x pX-X3.9.V c.$XK.d m yXyX&XeXKXaXM >XbX$X7..XCXLX#Xd.hXD.bX3.h.j.Q ~.L.d.+.0 v.9.1.",
"D @ M.D D p N (.9XhX>.P ; R. X+X%XhXb.%X`...7.AX*XU.W.l 9.T.Z.^ Z.+X7.m.nXJXJXP.ZXhXW. .n.VX4XnXg.,XJ.wXY.R j.N.B.:X5.(.P v &.9.",
"f % 9 z : O o c.'.%Xk + 6.XXA.=./.(...v U.4XhXD.4XqXqX$.wXV.4.&.4XDX2XsXCXAX.XiXAXmX,.f.b.Y.E.+Xi.,.d.=Xv.E $.i.].;XR h.>.3.b.E ",
"q o . % . y C <.8.+.r 0 &X1X-XH (.@XiX..-XxXhX#.rXrXd.v.7XD.T.m AXSX5XiXAXaXw.(.aXyX<X%.C.n *XR.#.d.X.;.W.P n X./.a.S 5.E U.%X+."
};
